<svg id="SvgjsSvg1236" width="766.0000305175781" height="519.5" xmlns="http://www.w3.org/2000/svg" version="1.1" xmlns:xlink="http://www.w3.org/1999/xlink" xmlns:svgjs="http://svgjs.com/svgjs"><defs id="SvgjsDefs1237"><marker id="SvgjsMarker1342" markerWidth="14" markerHeight="10" refX="10" refY="5" viewBox="0 0 14 10" orient="auto" markerUnits="userSpaceOnUse" stroke-dasharray="0,0"><path id="SvgjsPath1343" d="M0,0 L14,5 L0,10 L0,0" fill="#323232" stroke="#323232" stroke-width="1"></path></marker><marker id="SvgjsMarker1346" markerWidth="14" markerHeight="10" refX="10" refY="5" viewBox="0 0 14 10" orient="auto" markerUnits="userSpaceOnUse" stroke-dasharray="0,0"><path id="SvgjsPath1347" d="M0,0 L14,5 L0,10 L0,0" fill="#323232" stroke="#323232" stroke-width="1"></path></marker><marker id="SvgjsMarker1350" markerWidth="14" markerHeight="10" refX="10" refY="5" viewBox="0 0 14 10" orient="auto" markerUnits="userSpaceOnUse" stroke-dasharray="0,0"><path id="SvgjsPath1351" d="M0,0 L14,5 L0,10 L0,0" fill="#323232" stroke="#323232" stroke-width="1"></path></marker><marker id="SvgjsMarker1354" markerWidth="14" markerHeight="10" refX="10" refY="5" viewBox="0 0 14 10" orient="auto" markerUnits="userSpaceOnUse" stroke-dasharray="0,0"><path id="SvgjsPath1355" d="M0,0 L14,5 L0,10 L0,0" fill="#323232" stroke="#323232" stroke-width="1"></path></marker><marker id="SvgjsMarker1358" markerWidth="14" markerHeight="10" refX="10" refY="5" viewBox="0 0 14 10" orient="auto" markerUnits="userSpaceOnUse" stroke-dasharray="0,0"><path id="SvgjsPath1359" d="M0,0 L14,5 L0,10 L0,0" fill="#323232" stroke="#323232" stroke-width="1"></path></marker><marker id="SvgjsMarker1362" markerWidth="14" markerHeight="10" refX="10" refY="5" viewBox="0 0 14 10" orient="auto" markerUnits="userSpaceOnUse" stroke-dasharray="0,0"><path id="SvgjsPath1363" d="M0,0 L14,5 L0,10 L0,0" fill="#323232" stroke="#323232" stroke-width="1"></path></marker><marker id="SvgjsMarker1366" markerWidth="14" markerHeight="10" refX="10" refY="5" viewBox="0 0 14 10" orient="auto" markerUnits="userSpaceOnUse" stroke-dasharray="0,0"><path id="SvgjsPath1367" d="M0,0 L14,5 L0,10 L0,0" fill="#323232" stroke="#323232" stroke-width="1"></path></marker><marker id="SvgjsMarker1370" markerWidth="14" markerHeight="10" refX="10" refY="5" viewBox="0 0 14 10" orient="auto" markerUnits="userSpaceOnUse" stroke-dasharray="0,0"><path id="SvgjsPath1371" d="M0,0 L14,5 L0,10 L0,0" fill="#323232" stroke="#323232" stroke-width="1"></path></marker><marker id="SvgjsMarker1374" markerWidth="14" markerHeight="10" refX="10" refY="5" viewBox="0 0 14 10" orient="auto" markerUnits="userSpaceOnUse" stroke-dasharray="0,0"><path id="SvgjsPath1375" d="M0,0 L14,5 L0,10 L0,0" fill="#323232" stroke="#323232" stroke-width="1"></path></marker><marker id="SvgjsMarker1378" markerWidth="14" markerHeight="10" refX="10" refY="5" viewBox="0 0 14 10" orient="auto" markerUnits="userSpaceOnUse" stroke-dasharray="0,0"><path id="SvgjsPath1379" d="M0,0 L14,5 L0,10 L0,0" fill="#323232" stroke="#323232" stroke-width="1"></path></marker><marker id="SvgjsMarker1382" markerWidth="14" markerHeight="10" refX="10" refY="5" viewBox="0 0 14 10" orient="auto" markerUnits="userSpaceOnUse" stroke-dasharray="0,0"><path id="SvgjsPath1383" d="M0,0 L14,5 L0,10 L0,0" fill="#323232" stroke="#323232" stroke-width="1"></path></marker><marker id="SvgjsMarker1386" markerWidth="14" markerHeight="10" refX="10" refY="5" viewBox="0 0 14 10" orient="auto" markerUnits="userSpaceOnUse" stroke-dasharray="0,0"><path id="SvgjsPath1387" d="M0,0 L14,5 L0,10 L0,0" fill="#323232" stroke="#323232" stroke-width="1"></path></marker><marker id="SvgjsMarker1390" markerWidth="14" markerHeight="10" refX="10" refY="5" viewBox="0 0 14 10" orient="auto" markerUnits="userSpaceOnUse" stroke-dasharray="0,0"><path id="SvgjsPath1391" d="M0,0 L14,5 L0,10 L0,0" fill="#323232" stroke="#323232" stroke-width="1"></path></marker><marker id="SvgjsMarker1394" markerWidth="14" markerHeight="10" refX="10" refY="5" viewBox="0 0 14 10" orient="auto" markerUnits="userSpaceOnUse" stroke-dasharray="0,0"><path id="SvgjsPath1395" d="M0,0 L14,5 L0,10 L0,0" fill="#323232" stroke="#323232" stroke-width="1"></path></marker><marker id="SvgjsMarker1398" markerWidth="14" markerHeight="10" refX="10" refY="5" viewBox="0 0 14 10" orient="auto" markerUnits="userSpaceOnUse" stroke-dasharray="0,0"><path id="SvgjsPath1399" d="M0,0 L14,5 L0,10 L0,0" fill="#323232" stroke="#323232" stroke-width="1"></path></marker><marker id="SvgjsMarker1402" markerWidth="14" markerHeight="10" refX="10" refY="5" viewBox="0 0 14 10" orient="auto" markerUnits="userSpaceOnUse" stroke-dasharray="0,0"><path id="SvgjsPath1403" d="M0,0 L14,5 L0,10 L0,0" fill="#323232" stroke="#323232" stroke-width="1"></path></marker><marker id="SvgjsMarker1406" markerWidth="14" markerHeight="10" refX="10" refY="5" viewBox="0 0 14 10" orient="auto" markerUnits="userSpaceOnUse" stroke-dasharray="0,0"><path id="SvgjsPath1407" d="M0,0 L14,5 L0,10 L0,0" fill="#323232" stroke="#323232" stroke-width="1"></path></marker><marker id="SvgjsMarker1410" markerWidth="14" markerHeight="10" refX="10" refY="5" viewBox="0 0 14 10" orient="auto" markerUnits="userSpaceOnUse" stroke-dasharray="0,0"><path id="SvgjsPath1411" d="M0,0 L14,5 L0,10 L0,0" fill="#323232" stroke="#323232" stroke-width="1"></path></marker><marker id="SvgjsMarker1414" markerWidth="14" markerHeight="10" refX="10" refY="5" viewBox="0 0 14 10" orient="auto" markerUnits="userSpaceOnUse" stroke-dasharray="0,0"><path id="SvgjsPath1415" d="M0,0 L14,5 L0,10 L0,0" fill="#323232" stroke="#323232" stroke-width="1"></path></marker><marker id="SvgjsMarker1418" markerWidth="14" markerHeight="10" refX="10" refY="5" viewBox="0 0 14 10" orient="auto" markerUnits="userSpaceOnUse" stroke-dasharray="0,0"><path id="SvgjsPath1419" d="M0,0 L14,5 L0,10 L0,0" fill="#323232" stroke="#323232" stroke-width="1"></path></marker><marker id="SvgjsMarker1440" markerWidth="14" markerHeight="10" refX="10" refY="5" viewBox="0 0 14 10" orient="auto" markerUnits="userSpaceOnUse" stroke-dasharray="0,0"><path id="SvgjsPath1441" d="M0,0 L14,5 L0,10 L0,0" fill="#323232" stroke="#323232" stroke-width="1"></path></marker><marker id="SvgjsMarker1444" markerWidth="14" markerHeight="10" refX="10" refY="5" viewBox="0 0 14 10" orient="auto" markerUnits="userSpaceOnUse" stroke-dasharray="0,0"><path id="SvgjsPath1445" d="M0,0 L14,5 L0,10 L0,0" fill="#323232" stroke="#323232" stroke-width="1"></path></marker><marker id="SvgjsMarker1448" markerWidth="14" markerHeight="10" refX="10" refY="5" viewBox="0 0 14 10" orient="auto" markerUnits="userSpaceOnUse" stroke-dasharray="0,0"><path id="SvgjsPath1449" d="M0,0 L14,5 L0,10 L0,0" fill="#323232" stroke="#323232" stroke-width="1"></path></marker><marker id="SvgjsMarker1452" markerWidth="14" markerHeight="10" refX="10" refY="5" viewBox="0 0 14 10" orient="auto" markerUnits="userSpaceOnUse" stroke-dasharray="0,0"><path id="SvgjsPath1453" d="M0,0 L14,5 L0,10 L0,0" fill="#323232" stroke="#323232" stroke-width="1"></path></marker><marker id="SvgjsMarker1456" markerWidth="14" markerHeight="10" refX="10" refY="5" viewBox="0 0 14 10" orient="auto" markerUnits="userSpaceOnUse" stroke-dasharray="0,0"><path id="SvgjsPath1457" d="M0,0 L14,5 L0,10 L0,0" fill="#323232" stroke="#323232" stroke-width="1"></path></marker><marker id="SvgjsMarker1460" markerWidth="14" markerHeight="10" refX="10" refY="5" viewBox="0 0 14 10" orient="auto" markerUnits="userSpaceOnUse" stroke-dasharray="0,0"><path id="SvgjsPath1461" d="M0,0 L14,5 L0,10 L0,0" fill="#323232" stroke="#323232" stroke-width="1"></path></marker><marker id="SvgjsMarker1464" markerWidth="14" markerHeight="10" refX="10" refY="5" viewBox="0 0 14 10" orient="auto" markerUnits="userSpaceOnUse" stroke-dasharray="0,0"><path id="SvgjsPath1465" d="M0,0 L14,5 L0,10 L0,0" fill="#323232" stroke="#323232" stroke-width="1"></path></marker></defs><g id="SvgjsG1238" transform="translate(613.4999904632568,355)"><path id="SvgjsPath1239" d="M 0 4Q 0 0 4 0L 111 0Q 115 0 115 4L 115 26Q 115 30 111 30L 4 30Q 0 30 0 26Z" stroke="rgba(50,50,50,1)" stroke-width="2" fill-opacity="1" fill="#ffffff"></path><g id="SvgjsG1240"><text id="SvgjsText1241" font-family="微软雅黑" text-anchor="middle" font-size="16px" width="95px" fill="#323232" font-weight="400" align="middle" lineHeight="125%" anchor="middle" family="微软雅黑" size="16px" weight="400" font-style="" opacity="1" y="1" transform="rotate(0)"><tspan id="SvgjsTspan1242" dy="20" x="57.5"><tspan id="SvgjsTspan1243" style="text-decoration:;">iomanager.h</tspan></tspan></text></g></g><g id="SvgjsG1244" transform="translate(63.499990463256836,355)"><path id="SvgjsPath1245" d="M 0 4Q 0 0 4 0L 121 0Q 125 0 125 4L 125 26Q 125 30 121 30L 4 30Q 0 30 0 26Z" stroke="rgba(50,50,50,1)" stroke-width="2" fill-opacity="1" fill="#ffffff"></path><g id="SvgjsG1246"><text id="SvgjsText1247" font-family="微软雅黑" text-anchor="middle" font-size="16px" width="105px" fill="#323232" font-weight="400" align="middle" lineHeight="125%" anchor="middle" family="微软雅黑" size="16px" weight="400" font-style="" opacity="1" y="1" transform="rotate(0)"><tspan id="SvgjsTspan1248" dy="20" x="62.5"><tspan id="SvgjsTspan1249" style="text-decoration:;">scheduler.cpp</tspan></tspan></text></g></g><g id="SvgjsG1250" transform="translate(68.49999046325684,245)"><path id="SvgjsPath1251" d="M 0 4Q 0 0 4 0L 111 0Q 115 0 115 4L 115 26Q 115 30 111 30L 4 30Q 0 30 0 26Z" stroke="rgba(50,50,50,1)" stroke-width="2" fill-opacity="1" fill="#ffffff"></path><g id="SvgjsG1252"><text id="SvgjsText1253" font-family="微软雅黑" text-anchor="middle" font-size="16px" width="95px" fill="#323232" font-weight="400" align="middle" lineHeight="125%" anchor="middle" family="微软雅黑" size="16px" weight="400" font-style="" opacity="1" y="1" transform="rotate(0)"><tspan id="SvgjsTspan1254" dy="20" x="57.5"><tspan id="SvgjsTspan1255" style="text-decoration:;">scheduler.h</tspan></tspan></text></g></g><g id="SvgjsG1256" transform="translate(75.99999046325684,135)"><path id="SvgjsPath1257" d="M 0 4Q 0 0 4 0L 96 0Q 100 0 100 4L 100 26Q 100 30 96 30L 4 30Q 0 30 0 26Z" stroke="rgba(50,50,50,1)" stroke-width="2" fill-opacity="1" fill="#ffffff"></path><g id="SvgjsG1258"><text id="SvgjsText1259" font-family="微软雅黑" text-anchor="middle" font-size="16px" width="80px" fill="#323232" font-weight="400" align="middle" lineHeight="125%" anchor="middle" family="微软雅黑" size="16px" weight="400" font-style="" opacity="1" y="1" transform="rotate(0)"><tspan id="SvgjsTspan1260" dy="20" x="50"><tspan id="SvgjsTspan1261" style="text-decoration:;">fiber.cpp</tspan></tspan></text></g></g><g id="SvgjsG1262" transform="translate(250.99999046325684,25)"><path id="SvgjsPath1263" d="M 0 4Q 0 0 4 0L 96 0Q 100 0 100 4L 100 26Q 100 30 96 30L 4 30Q 0 30 0 26Z" stroke="rgba(50,50,50,1)" stroke-width="2" fill-opacity="1" fill="#ffffff"></path><g id="SvgjsG1264"><text id="SvgjsText1265" font-family="微软雅黑" text-anchor="middle" font-size="16px" width="80px" fill="#323232" font-weight="400" align="middle" lineHeight="125%" anchor="middle" family="微软雅黑" size="16px" weight="400" font-style="" opacity="1" y="1" transform="rotate(0)"><tspan id="SvgjsTspan1266" dy="20" x="50"><tspan id="SvgjsTspan1267" style="text-decoration:;">utils.h</tspan></tspan></text></g></g><g id="SvgjsG1268" transform="translate(250.99999046325684,135)"><path id="SvgjsPath1269" d="M 0 4Q 0 0 4 0L 96 0Q 100 0 100 4L 100 26Q 100 30 96 30L 4 30Q 0 30 0 26Z" stroke="rgba(50,50,50,1)" stroke-width="2" fill-opacity="1" fill="#ffffff"></path><g id="SvgjsG1270"><text id="SvgjsText1271" font-family="微软雅黑" text-anchor="middle" font-size="16px" width="80px" fill="#323232" font-weight="400" align="middle" lineHeight="125%" anchor="middle" family="微软雅黑" size="16px" weight="400" font-style="" opacity="1" y="1" transform="rotate(0)"><tspan id="SvgjsTspan1272" dy="20" x="50"><tspan id="SvgjsTspan1273" style="text-decoration:;">log.h</tspan></tspan></text></g></g><g id="SvgjsG1274" transform="translate(425.99999046325684,25)"><path id="SvgjsPath1275" d="M 0 4Q 0 0 4 0L 96 0Q 100 0 100 4L 100 26Q 100 30 96 30L 4 30Q 0 30 0 26Z" stroke="rgba(50,50,50,1)" stroke-width="2" fill-opacity="1" fill="#ffffff"></path><g id="SvgjsG1276"><text id="SvgjsText1277" font-family="微软雅黑" text-anchor="middle" font-size="16px" width="80px" fill="#323232" font-weight="400" align="middle" lineHeight="125%" anchor="middle" family="微软雅黑" size="16px" weight="400" font-style="" opacity="1" y="1" transform="rotate(0)"><tspan id="SvgjsTspan1278" dy="20" x="50"><tspan id="SvgjsTspan1279" style="text-decoration:;">mutex.h</tspan></tspan></text></g></g><g id="SvgjsG1280" transform="translate(250.99999046325684,245)"><path id="SvgjsPath1281" d="M 0 4Q 0 0 4 0L 96 0Q 100 0 100 4L 100 26Q 100 30 96 30L 4 30Q 0 30 0 26Z" stroke="rgba(50,50,50,1)" stroke-width="2" fill-opacity="1" fill="#ffffff"></path><g id="SvgjsG1282"><text id="SvgjsText1283" font-family="微软雅黑" text-anchor="middle" font-size="16px" width="80px" fill="#323232" font-weight="400" align="middle" lineHeight="125%" anchor="middle" family="微软雅黑" size="16px" weight="400" font-style="" opacity="1" y="1" transform="rotate(0)"><tspan id="SvgjsTspan1284" dy="20" x="50"><tspan id="SvgjsTspan1285" style="text-decoration:;">macro.h</tspan></tspan></text></g></g><g id="SvgjsG1286" transform="translate(600.9999904632568,25)"><path id="SvgjsPath1287" d="M 0 4Q 0 0 4 0L 136 0Q 140 0 140 4L 140 26Q 140 30 136 30L 4 30Q 0 30 0 26Z" stroke="rgba(50,50,50,1)" stroke-width="2" fill-opacity="1" fill="#ffffff"></path><g id="SvgjsG1288"><text id="SvgjsText1289" font-family="微软雅黑" text-anchor="middle" font-size="16px" width="120px" fill="#323232" font-weight="400" align="middle" lineHeight="125%" anchor="middle" family="微软雅黑" size="16px" weight="400" font-style="" opacity="1" y="1" transform="rotate(0)"><tspan id="SvgjsTspan1290" dy="20" x="70"><tspan id="SvgjsTspan1291" style="text-decoration:;">noncopyable.h</tspan></tspan></text></g></g><g id="SvgjsG1292" transform="translate(418.49999046325684,464.5)"><path id="SvgjsPath1293" d="M 0 4Q 0 0 4 0L 111 0Q 115 0 115 4L 115 26Q 115 30 111 30L 4 30Q 0 30 0 26Z" stroke="rgba(50,50,50,1)" stroke-width="2" fill-opacity="1" fill="#ffffff"></path><g id="SvgjsG1294"><text id="SvgjsText1295" font-family="微软雅黑" text-anchor="middle" font-size="16px" width="95px" fill="#323232" font-weight="400" align="middle" lineHeight="125%" anchor="middle" family="微软雅黑" size="16px" weight="400" font-style="" opacity="1" y="1" transform="rotate(0)"><tspan id="SvgjsTspan1296" dy="20" x="57.5"><tspan id="SvgjsTspan1297" style="text-decoration:;">config.cpp</tspan></tspan></text></g></g><g id="SvgjsG1298" transform="translate(161.99999046325684,91)"><path id="SvgjsPath1299" d="M 0 4Q 0 0 4 0L 96 0Q 100 0 100 4L 100 26Q 100 30 96 30L 4 30Q 0 30 0 26Z" stroke="rgba(50,50,50,1)" stroke-width="2" fill-opacity="1" fill="#ffffff"></path><g id="SvgjsG1300"><text id="SvgjsText1301" font-family="微软雅黑" text-anchor="middle" font-size="16px" width="80px" fill="#323232" font-weight="400" align="middle" lineHeight="125%" anchor="middle" family="微软雅黑" size="16px" weight="400" font-style="" opacity="1" y="1" transform="rotate(0)"><tspan id="SvgjsTspan1302" dy="20" x="50"><tspan id="SvgjsTspan1303" style="text-decoration:;">utils.cpp</tspan></tspan></text></g></g><g id="SvgjsG1304" transform="translate(418.49999046325684,355)"><path id="SvgjsPath1305" d="M 0 4Q 0 0 4 0L 111 0Q 115 0 115 4L 115 26Q 115 30 111 30L 4 30Q 0 30 0 26Z" stroke="rgba(50,50,50,1)" stroke-width="2" fill-opacity="1" fill="#ffffff"></path><g id="SvgjsG1306"><text id="SvgjsText1307" font-family="微软雅黑" text-anchor="middle" font-size="16px" width="95px" fill="#323232" font-weight="400" align="middle" lineHeight="125%" anchor="middle" family="微软雅黑" size="16px" weight="400" font-style="" opacity="1" y="1" transform="rotate(0)"><tspan id="SvgjsTspan1308" dy="20" x="57.5"><tspan id="SvgjsTspan1309" style="text-decoration:;">thread.cpp</tspan></tspan></text></g></g><g id="SvgjsG1310" transform="translate(250.99999046325684,355)"><path id="SvgjsPath1311" d="M 0 4Q 0 0 4 0L 96 0Q 100 0 100 4L 100 26Q 100 30 96 30L 4 30Q 0 30 0 26Z" stroke="rgba(50,50,50,1)" stroke-width="2" fill-opacity="1" fill="#ffffff"></path><g id="SvgjsG1312"><text id="SvgjsText1313" font-family="微软雅黑" text-anchor="middle" font-size="16px" width="80px" fill="#323232" font-weight="400" align="middle" lineHeight="125%" anchor="middle" family="微软雅黑" size="16px" weight="400" font-style="" opacity="1" y="1" transform="rotate(0)"><tspan id="SvgjsTspan1314" dy="20" x="50"><tspan id="SvgjsTspan1315" style="text-decoration:;">config.h</tspan></tspan></text></g></g><g id="SvgjsG1316" transform="translate(250.99999046325684,464.5)"><path id="SvgjsPath1317" d="M 0 4Q 0 0 4 0L 96 0Q 100 0 100 4L 100 26Q 100 30 96 30L 4 30Q 0 30 0 26Z" stroke="rgba(50,50,50,1)" stroke-width="2" fill-opacity="1" fill="#ffffff"></path><g id="SvgjsG1318"><text id="SvgjsText1319" font-family="微软雅黑" text-anchor="middle" font-size="16px" width="80px" fill="#323232" font-weight="400" align="middle" lineHeight="125%" anchor="middle" family="微软雅黑" size="16px" weight="400" font-style="" opacity="1" y="1" transform="rotate(0)"><tspan id="SvgjsTspan1320" dy="20" x="50"><tspan id="SvgjsTspan1321" style="text-decoration:;">ready.h</tspan></tspan></text></g></g><g id="SvgjsG1322" transform="translate(342.49999046325684,200.5)"><path id="SvgjsPath1323" d="M 0 4Q 0 0 4 0L 96 0Q 100 0 100 4L 100 26Q 100 30 96 30L 4 30Q 0 30 0 26Z" stroke="rgba(50,50,50,1)" stroke-width="2" fill-opacity="1" fill="#ffffff"></path><g id="SvgjsG1324"><text id="SvgjsText1325" font-family="微软雅黑" text-anchor="middle" font-size="16px" width="80px" fill="#323232" font-weight="400" align="middle" lineHeight="125%" anchor="middle" family="微软雅黑" size="16px" weight="400" font-style="" opacity="1" y="1" transform="rotate(0)"><tspan id="SvgjsTspan1326" dy="20" x="50"><tspan id="SvgjsTspan1327" style="text-decoration:;">log.cpp</tspan></tspan></text></g></g><g id="SvgjsG1328" transform="translate(425.99999046325684,135)"><path id="SvgjsPath1329" d="M 0 4Q 0 0 4 0L 96 0Q 100 0 100 4L 100 26Q 100 30 96 30L 4 30Q 0 30 0 26Z" stroke="rgba(50,50,50,1)" stroke-width="2" fill-opacity="1" fill="#ffffff"></path><g id="SvgjsG1330"><text id="SvgjsText1331" font-family="微软雅黑" text-anchor="middle" font-size="16px" width="80px" fill="#323232" font-weight="400" align="middle" lineHeight="125%" anchor="middle" family="微软雅黑" size="16px" weight="400" font-style="" opacity="1" y="1" transform="rotate(0)"><tspan id="SvgjsTspan1332" dy="20" x="50"><tspan id="SvgjsTspan1333" style="text-decoration:;">thread.h</tspan></tspan></text></g></g><g id="SvgjsG1334" transform="translate(75.99999046325684,25)"><path id="SvgjsPath1335" d="M 0 4Q 0 0 4 0L 96 0Q 100 0 100 4L 100 26Q 100 30 96 30L 4 30Q 0 30 0 26Z" stroke="rgba(50,50,50,1)" stroke-width="2" fill-opacity="1" fill="#ffffff"></path><g id="SvgjsG1336"><text id="SvgjsText1337" font-family="微软雅黑" text-anchor="middle" font-size="16px" width="80px" fill="#323232" font-weight="400" align="middle" lineHeight="125%" anchor="middle" family="微软雅黑" size="16px" weight="400" font-style="" opacity="1" y="1" transform="rotate(0)"><tspan id="SvgjsTspan1338" dy="20" x="50"><tspan id="SvgjsTspan1339" style="text-decoration:;">fiber.h</tspan></tspan></text></g></g><g id="SvgjsG1340"><path id="SvgjsPath1341" d="M475.090515987671 55.415759760267804L304.27409857536577 133.50326486303595" stroke="#323232" stroke-width="2" fill="none" marker-end="url(#SvgjsMarker1342)"></path></g><g id="SvgjsG1344"><path id="SvgjsPath1345" d="M300.99999046325684 56L300.99999046325684 131.4" stroke="#323232" stroke-width="2" fill="none" marker-end="url(#SvgjsMarker1346)"></path></g><g id="SvgjsG1348"><path id="SvgjsPath1349" d="M301.93228166398137 165.36170860793138L389.14374214064856 199.1978490114471" stroke="#323232" stroke-width="2" fill="none" marker-end="url(#SvgjsMarker1350)"></path></g><g id="SvgjsG1352"><path id="SvgjsPath1353" d="M300.99999046325684 166L300.99999046325684 241.39999999999998" stroke="#323232" stroke-width="2" fill="none" marker-end="url(#SvgjsMarker1354)"></path></g><g id="SvgjsG1356"><path id="SvgjsPath1357" d="M300.99999046325684 276L300.99999046325684 351.4" stroke="#323232" stroke-width="2" fill="none" marker-end="url(#SvgjsMarker1358)"></path></g><g id="SvgjsG1360"><path id="SvgjsPath1361" d="M301.9104460052922 385.41360694623893L472.72235051192956 463.0110149935399" stroke="#323232" stroke-width="2" fill="none" marker-end="url(#SvgjsMarker1362)"></path></g><g id="SvgjsG1364"><path id="SvgjsPath1365" d="M475.99999046325684 56L475.99999046325684 131.4" stroke="#323232" stroke-width="2" fill="none" marker-end="url(#SvgjsMarker1366)"></path></g><g id="SvgjsG1368"><path id="SvgjsPath1369" d="M475.99999046325684 166L475.99999046325684 351.4" stroke="#323232" stroke-width="2" fill="none" marker-end="url(#SvgjsMarker1370)"></path></g><g id="SvgjsG1372"><path id="SvgjsPath1373" d="M301.9094649388427 275.4157597602678L472.7258823511479 353.50326486303595" stroke="#323232" stroke-width="2" fill="none" marker-end="url(#SvgjsMarker1374)"></path></g><g id="SvgjsG1376"><path id="SvgjsPath1377" d="M300.99999046325684 386L300.99999046325684 460.9" stroke="#323232" stroke-width="2" fill="none" marker-end="url(#SvgjsMarker1378)"></path></g><g id="SvgjsG1380"><path id="SvgjsPath1381" d="M599.9999904632568 40L563.4999904632568 40L563.4999904632568 40L529.5999904632569 40" stroke="#323232" stroke-width="2" fill="none" marker-end="url(#SvgjsMarker1382)"></path></g><g id="SvgjsG1384"><path id="SvgjsPath1385" d="M125.99999046325684 56L125.99999046325684 131.4" stroke="#323232" stroke-width="2" fill="none" marker-end="url(#SvgjsMarker1386)"></path></g><g id="SvgjsG1388"><path id="SvgjsPath1389" d="M126.92243145155817 55.38613808812613L208.6792029053721 89.60990288274593" stroke="#323232" stroke-width="2" fill="none" marker-end="url(#SvgjsMarker1390)"></path></g><g id="SvgjsG1392"><path id="SvgjsPath1393" d="M300.07295742332053 55.37497965660344L215.33730940702753 89.65007323622757" stroke="#323232" stroke-width="2" fill="none" marker-end="url(#SvgjsMarker1394)"></path></g><g id="SvgjsG1396"><path id="SvgjsPath1397" d="M425.0893027354898 150.41309546414175L186.77846628321822 258.5128563290897" stroke="#323232" stroke-width="2" fill="none" marker-end="url(#SvgjsMarker1398)"></path></g><g id="SvgjsG1400"><path id="SvgjsPath1401" d="M250.0086471751796 369.8687045881065C 158.02687606990116 370 268.9731048566125 150 179.56882630033476 150.4726634828166" stroke="#323232" stroke-width="2" fill="none" marker-end="url(#SvgjsMarker1402)"></path></g><g id="SvgjsG1404"><path id="SvgjsPath1405" d="M125.99999046325684 244L125.99999046325684 168.6" stroke="#323232" stroke-width="2" fill="none" marker-end="url(#SvgjsMarker1406)"></path></g><g id="SvgjsG1408"><path id="SvgjsPath1409" d="M125.99999046325684 276L125.99999046325684 351.4" stroke="#323232" stroke-width="2" fill="none" marker-end="url(#SvgjsMarker1410)"></path></g><g id="SvgjsG1412"><path id="SvgjsPath1413" d="M300.090515987671 275.4157597602678L129.2740985753657 353.50326486303595" stroke="#323232" stroke-width="2" fill="none" marker-end="url(#SvgjsMarker1414)"></path></g><g id="SvgjsG1416"><path id="SvgjsPath1417" d="M75.46203075015387 40.84297054935398C 24.999990463256836 112 42.999990463256836 225 66.56025815401358 256.9672720912555" stroke="#323232" stroke-width="2" fill="none" marker-end="url(#SvgjsMarker1418)"></path></g><g id="SvgjsG1420" transform="translate(620.9999904632568,245)"><path id="SvgjsPath1421" d="M 0 4Q 0 0 4 0L 96 0Q 100 0 100 4L 100 26Q 100 30 96 30L 4 30Q 0 30 0 26Z" stroke="rgba(50,50,50,1)" stroke-width="2" fill-opacity="1" fill="#ffffff"></path><g id="SvgjsG1422"><text id="SvgjsText1423" font-family="微软雅黑" text-anchor="middle" font-size="16px" width="80px" fill="#323232" font-weight="400" align="middle" lineHeight="125%" anchor="middle" family="微软雅黑" size="16px" weight="400" font-style="" opacity="1" y="1" transform="rotate(0)"><tspan id="SvgjsTspan1424" dy="20" x="50"><tspan id="SvgjsTspan1425" style="text-decoration:;">timer.cpp</tspan></tspan></text></g></g><g id="SvgjsG1426" transform="translate(620.9999904632568,135)"><path id="SvgjsPath1427" d="M 0 4Q 0 0 4 0L 96 0Q 100 0 100 4L 100 26Q 100 30 96 30L 4 30Q 0 30 0 26Z" stroke="rgba(50,50,50,1)" stroke-width="2" fill-opacity="1" fill="#ffffff"></path><g id="SvgjsG1428"><text id="SvgjsText1429" font-family="微软雅黑" text-anchor="middle" font-size="16px" width="80px" fill="#323232" font-weight="400" align="middle" lineHeight="125%" anchor="middle" family="微软雅黑" size="16px" weight="400" font-style="" opacity="1" y="1" transform="rotate(0)"><tspan id="SvgjsTspan1430" dy="20" x="50"><tspan id="SvgjsTspan1431" style="text-decoration:;">timer.h</tspan></tspan></text></g></g><g id="SvgjsG1432" transform="translate(603.4999904632568,464.5)"><path id="SvgjsPath1433" d="M 0 4Q 0 0 4 0L 131 0Q 135 0 135 4L 135 26Q 135 30 131 30L 4 30Q 0 30 0 26Z" stroke="rgba(50,50,50,1)" stroke-width="2" fill-opacity="1" fill="#ffffff"></path><g id="SvgjsG1434"><text id="SvgjsText1435" font-family="微软雅黑" text-anchor="middle" font-size="16px" width="115px" fill="#323232" font-weight="400" align="middle" lineHeight="125%" anchor="middle" family="微软雅黑" size="16px" weight="400" font-style="" opacity="1" y="1" transform="rotate(0)"><tspan id="SvgjsTspan1436" dy="20" x="67.5"><tspan id="SvgjsTspan1437" style="text-decoration:;">iomanager.cpp</tspan></tspan></text></g></g><g id="SvgjsG1438"><path id="SvgjsPath1439" d="M526.9999904632568 150L617.3999904632568 150" stroke="#323232" stroke-width="2" fill="none" marker-end="url(#SvgjsMarker1440)"></path></g><g id="SvgjsG1442"><path id="SvgjsPath1443" d="M670.9999904632568 166L670.9999904632568 241.39999999999998" stroke="#323232" stroke-width="2" fill="none" marker-end="url(#SvgjsMarker1444)"></path></g><g id="SvgjsG1446"><path id="SvgjsPath1447" d="M301.4724115423588 55.881372976679046C 365.6666564941406 183 509.6666564941406 223 617.5818245564456 258.8703355217086" stroke="#323232" stroke-width="2" fill="none" marker-end="url(#SvgjsMarker1448)"></path></g><g id="SvgjsG1450"><path id="SvgjsPath1451" d="M126.9611472248892 275.27600304267963C 355.6666564941406 343 475.6666564941406 293 610.330101346229 368.2935994064265" stroke="#323232" stroke-width="2" fill="none" marker-end="url(#SvgjsMarker1452)"></path></g><g id="SvgjsG1454"><path id="SvgjsPath1455" d="M620.006391287192 150.11296316799348C 532.9488689485368 150 536.6666564941406 329 610.498084788277 368.0129010295097" stroke="#323232" stroke-width="2" fill="none" marker-end="url(#SvgjsMarker1456)"></path></g><g id="SvgjsG1458"><path id="SvgjsPath1459" d="M670.9999904632568 386L670.9999904632568 460.9" stroke="#323232" stroke-width="2" fill="none" marker-end="url(#SvgjsMarker1460)"></path></g><g id="SvgjsG1462"><path id="SvgjsPath1463" d="M301.5585760285736 275.82944690379776C 385.6666564941406 405 491.6666564941406 435 600.1514094481525 478.1782567627246" stroke="#323232" stroke-width="2" fill="none" marker-end="url(#SvgjsMarker1464)"></path></g></svg>